<svg width="24" height="24" viewBox="0 0 24 24"
    xmlns="http://www.w3.org/2000/svg">
    <path fill-rule="evenodd" clip-rule="evenodd" d="M15.2138 2.37786C14.1435 -0.792621 9.60917 -0.792621 8.53883 2.37786C7.99123 3.99992 6.31072 4.97852 4.63494 4.62823L3.78256 4.45006C0.715929 3.80906 -1.2854 7.57239 0.960564 9.7566C2.22406 10.9853 2.22406 13.0147 0.960564 14.2434C-1.2854 16.4276 0.715928 20.1909 3.78256 19.5499L4.63494 19.3718C6.31073 19.0215 7.99123 20.0001 8.53883 21.6221C9.60917 24.7926 14.1435 24.7926 15.2138 21.6221C15.7614 20.0001 17.4419 19.0215 19.1177 19.3718L19.9701 19.5499C23.0367 20.1909 25.0381 16.4276 22.7921 14.2434C21.5286 13.0147 21.5286 10.9853 22.7921 9.7566C25.0381 7.57239 23.0367 3.80906 19.9701 4.45006L19.1177 4.62823C17.4419 4.97852 15.7614 3.99992 15.2138 2.37786ZM12 16C14.2091 16 16 14.2091 16 12C16 9.79086 14.2091 8 12 8C9.79086 8 8 9.79086 8 12C8 14.2091 9.79086 16 12 16Z" fill="black"/>
</svg>
