<svg width="40" height="40" viewBox="0 0 40 40" fill="none"
    xmlns="http://www.w3.org/2000/svg">
    <path fill-rule="evenodd" clip-rule="evenodd" d="M29 20C29 24.9706 24.9706 29 20 29C17.7126 29 15.6246 28.1467 14.0368 26.741L11.3345 28.3012C13.5188 30.5807 16.5936 32 20 32C26.6274 32 32 26.6274 32 20C32 18.8353 31.8341 17.7093 31.5245 16.6445L28.821 18.2053C28.9384 18.7853 29 19.3854 29 20ZM11.3562 22.5152C11.1243 21.717 11 20.873 11 20C11 15.0294 15.0294 11 20 11C22.5542 11 24.8599 12.064 26.4981 13.773L29.1535 12.2399C26.9523 9.64607 23.6684 8 20 8C13.3726 8 8 13.3726 8 20C8 21.4207 8.2469 22.7838 8.70013 24.0486L11.3562 22.5152Z" fill="black"/>
    <path d="M6 22L10.5 24L13 20" stroke="black" stroke-width="2"/>
    <path d="M34.0143 18.2099L29.5083 16.2875L27.0368 20.2848" stroke="black" stroke-width="2"/>
</svg>
