<svg width="36" height="36" viewBox="0 0 36 36" fill="none" xmlns="http://www.w3.org/2000/svg">
<rect width="36" height="36" rx="2" fill="#333333"/>
<path d="M17.72 22.3875C19.8324 22.3875 21.545 20.675 21.545 18.5625C21.545 16.45 19.8324 14.7375 17.72 14.7375C15.6075 14.7375 13.895 16.45 13.895 18.5625C13.895 20.675 15.6075 22.3875 17.72 22.3875Z" fill="white"/>
<path d="M31.7553 17.5226C30.1739 15.077 28.1222 12.9995 25.8224 11.5143C23.2781 9.86959 20.4692 9 17.6996 9C15.1584 9 12.6596 9.72615 10.2725 11.1581C7.83829 12.6182 5.63294 14.7512 3.71745 17.4975C3.50121 17.8078 3.38212 18.1755 3.37531 18.5537C3.3685 18.9319 3.47428 19.3036 3.6792 19.6215C5.25761 22.0917 7.28905 24.1721 9.55297 25.637C12.102 27.2883 14.8452 28.125 17.6996 28.125C20.4913 28.125 23.3062 27.2626 25.8397 25.6316C28.1383 24.1512 30.1859 22.066 31.7613 19.6C31.9591 19.2895 32.0638 18.9287 32.0627 18.5604C32.0616 18.1922 31.955 17.832 31.7553 17.5226ZM17.7199 24.3C16.5852 24.3 15.4759 23.9635 14.5324 23.3331C13.5888 22.7026 12.8534 21.8065 12.4192 20.7581C11.9849 19.7098 11.8713 18.5561 12.0927 17.4432C12.3141 16.3302 12.8605 15.3079 13.6629 14.5055C14.4653 13.7031 15.4876 13.1566 16.6006 12.9352C17.7136 12.7139 18.8672 12.8275 19.9156 13.2617C20.964 13.696 21.8601 14.4314 22.4905 15.3749C23.1209 16.3184 23.4574 17.4277 23.4574 18.5625C23.4557 20.0836 22.8507 21.542 21.775 22.6176C20.6994 23.6932 19.2411 24.2983 17.7199 24.3Z" fill="white"/>
</svg>
